<svg xmlns="http://www.w3.org/2000/svg" width="80" height="80" viewBox="0 0 80 80">
    <g fill="none" fill-rule="evenodd" stroke-width="3">
        <path stroke="#00A2FD" d="M51.78 51.849c5.857-5.856 5.88-15.328.053-21.155-5.828-5.828-15.299-5.804-21.155.052-5.856 5.856-5.88 15.327-.052 21.155 5.827 5.827 15.299 5.804 21.155-.052zm2.05-.688l-3.42 3.42 13.96 13.962a2.419 2.419 0 0 0 3.42-3.42L53.83 51.16z"/>
        <g stroke="#FFF" stroke-linecap="round">
            <path d="M.03 18.252C5.075 7.28 13.807 1.39 26.226.587c12.618-.816 20.16 11.197 23.713 19.035"/>
            <path d="M.782 26.76c7.685-4.478 12.826-7.678 15.423-9.598 6.418-4.745 9.232-8.737 13.106-9.598M1.211 41.02c7.472 0 13.694-3.24 18.669-9.719 7.461-9.718 8.7-14.234 18.63-14.234M18.163 46.682c-5.858 3.64-10.29 5.757-13.3 6.35M21.38 55.566c-5.136 4.602-9.134 7.456-11.994 8.563M44.509 67.05c-8.464-5.309-14.296-7.079-17.496-5.309-3.2 1.77-5.858 3.988-7.977 6.655"/>
        </g>
    </g>
</svg>
